<svg xmlns="http://www.w3.org/2000/svg" width="51" height="50" viewBox="0 0 51 50" fill="none"><g clip-path="url(#clip0_606_2539)"><path d="M9.71631 36.8164C11.6051 36.8164 13.1362 35.2853 13.1362 33.3965C13.1362 31.5077 11.6051 29.9766 9.71631 29.9766C7.82754 29.9766 6.29639 31.5077 6.29639 33.3965C6.29639 35.2853 7.82754 36.8164 9.71631 36.8164Z" fill="#B2E26D"></path><path d="M9.71631 46.7773C11.6051 46.7773 13.1362 45.2462 13.1362 43.3574C13.1362 41.4687 11.6051 39.9375 9.71631 39.9375C7.82754 39.9375 6.29639 41.4687 6.29639 43.3574C6.29639 45.2462 7.82754 46.7773 9.71631 46.7773Z" fill="#B2E26D"></path><path d="M31.0054 36.8164C32.8941 36.8164 34.4253 35.2853 34.4253 33.3965C34.4253 31.5077 32.8941 29.9766 31.0054 29.9766C29.1166 29.9766 27.5854 31.5077 27.5854 33.3965C27.5854 35.2853 29.1166 36.8164 31.0054 36.8164Z" fill="#FC657E"></path><path d="M31.0054 46.7773C32.8941 46.7773 34.4253 45.2462 34.4253 43.3574C34.4253 41.4687 32.8941 39.9375 31.0054 39.9375C29.1166 39.9375 27.5854 41.4687 27.5854 43.3574C27.5854 45.2462 29.1166 46.7773 31.0054 46.7773Z" fill="#FC657E"></path><path d="M32.1441 9.95424C32.1441 8.9101 32.2859 7.4394 31.6404 6.2392C31.5404 6.05346 31.5016 5.84077 31.5277 5.63159C31.549 5.46069 31.6115 5.29819 31.7133 5.15932C32.0889 4.64682 32.5 3.94799 32.7459 3.09877C33.198 1.53803 31.71 0.0878373 30.1641 0.588423C28.8897 1.00112 27.2395 1.30991 25.5426 1.01049C21.9225 0.371626 18.543 3.7187 17.9828 7.07944C17.4855 10.0628 18.9232 14.207 19.5852 15.898C19.7834 16.4042 19.793 16.9636 19.6119 17.4761L19.4877 17.8281C19.307 18.3398 18.9484 18.7699 18.477 19.0394C18.025 19.2978 17.6971 19.7285 17.5182 20.2173L17.4398 20.4316C17.092 21.3826 16.4975 22.2156 15.7523 22.9015C14.8934 23.6921 14.2555 24.7187 13.9414 25.8787H31.0887C30.5641 24.613 29.6857 23.6496 28.9102 22.9224C28.483 22.522 28.151 22.0324 27.9426 21.4853L27.7756 21.0472C27.7297 20.9267 27.6705 20.8271 27.6045 20.7447C27.2 20.2396 26.9801 19.6122 27.0643 18.9699C27.1053 18.657 27.426 18.4619 27.7266 18.5574C28.1477 18.6912 28.5148 18.7997 28.8361 18.8861C29.8207 19.1507 30.9094 18.7724 31.5156 17.8052C31.6371 17.6115 31.7148 17.3935 31.7674 17.1708C31.8049 17.0121 31.8408 16.8648 31.8768 16.7406C31.9107 16.6234 31.893 16.4984 31.8252 16.397L31.691 16.1957C31.583 16.0335 31.6043 15.8177 31.742 15.68L32.2373 15.3976C32.3139 15.321 32.357 15.2171 32.357 15.1087V14.0681C32.357 13.9035 32.4549 13.7546 32.6072 13.6915C32.8518 13.5904 33.2432 13.4095 33.6348 13.1484C34.2736 12.7226 32.1441 11.232 32.1441 9.95424Z" fill="#092D64"></path><path d="M44.4268 22.4805H43.958V22.0313C43.958 21.6797 43.6846 21.4062 43.333 21.4062C43.001 21.4062 42.708 21.6797 42.708 22.0117V22.4805H42.2588C41.9072 22.4805 41.6338 22.7539 41.6338 23.1055C41.6143 23.4375 41.8877 23.7305 42.2588 23.7305H42.708V24.1797C42.708 24.5313 42.9815 24.8047 43.333 24.8047C43.665 24.8047 43.958 24.5313 43.958 24.1992V23.7305H44.4072C44.7588 23.7305 45.0322 23.457 45.0322 23.1055C45.0322 22.7734 44.7588 22.4805 44.4268 22.4805Z" fill="#70D6F9"></path><path d="M39.2119 26.4648C38.8451 26.4648 38.5479 26.7621 38.5479 27.1289C38.5479 27.4957 38.8451 27.793 39.2119 27.793C39.5787 27.793 39.876 27.4957 39.876 27.1289C39.876 26.7621 39.5785 26.4648 39.2119 26.4648Z" fill="#F5C84C"></path><path d="M25.1387 48.7353C24.5332 48.6182 24.0449 48.1494 23.9277 47.5439C23.9277 47.5244 23.8691 47.5244 23.8691 47.5439C23.752 48.1494 23.2637 48.6182 22.6582 48.7353C22.6387 48.7353 22.6387 48.7744 22.6582 48.7939C23.2637 48.9111 23.752 49.3799 23.8691 49.9854C23.8691 50.0049 23.9277 50.0049 23.9277 49.9854C24.0449 49.3799 24.5332 48.9111 25.1387 48.7939C25.1582 48.7744 25.1582 48.7353 25.1387 48.7353Z" fill="#87D147"></path><path d="M16.0015 0C15.6347 0 15.3374 0.297266 15.3374 0.664062C15.3374 1.03086 15.6347 1.32812 16.0015 1.32812C16.3683 1.32812 16.6655 1.03086 16.6655 0.664062C16.6655 0.297266 16.3681 0 16.0015 0Z" fill="#FC657E"></path><path d="M12.834 5.11719C11.9551 4.96094 11.2715 4.27734 11.0957 3.41797C11.0957 3.37891 11.0176 3.37891 11.0176 3.41797C10.8418 4.27734 10.1582 4.96094 9.2793 5.11719C9.24023 5.11719 9.24023 5.17578 9.2793 5.19531C10.1582 5.35156 10.8418 6.03516 11.0176 6.89453C11.0176 6.93359 11.0957 6.93359 11.0957 6.89453C11.2715 6.03516 11.9551 5.35156 12.834 5.19531C12.873 5.17578 12.873 5.11719 12.834 5.11719Z" fill="#F5C84C"></path><path d="M38.4477 14.729H37.3896C37.1199 14.729 36.9014 14.9476 36.9014 15.2173C36.9014 15.487 37.1199 15.7056 37.3896 15.7056H38.4477C38.7174 15.7056 38.9359 15.487 38.9359 15.2173C38.9359 14.9476 38.7174 14.729 38.4477 14.729Z" fill="black"></path><path d="M37.8215 11.0582C37.6868 10.8246 37.3876 10.7447 37.1545 10.8794L36.2383 11.4085C36.0047 11.5433 35.9249 11.8421 36.0596 12.0755C36.1501 12.2322 36.3143 12.3197 36.4829 12.3197C36.5659 12.3197 36.6497 12.2988 36.7266 12.2543L37.6428 11.7252C37.8764 11.5904 37.9563 11.2916 37.8215 11.0582Z" fill="black"></path><path d="M37.6428 18.7095L36.7266 18.1806C36.4936 18.0461 36.1945 18.1257 36.0596 18.3593C35.9248 18.5929 36.0049 18.8916 36.2383 19.0263L37.1545 19.5552C37.2315 19.5998 37.3152 19.6207 37.3983 19.6207C37.5668 19.6207 37.7311 19.5332 37.8215 19.3765C37.9563 19.1429 37.8762 18.8443 37.6428 18.7095Z" fill="black"></path><path d="M33.522 11.5812C33.1257 11.0683 32.6321 10.4298 32.6321 9.95465C32.6321 9.80504 32.6353 9.64645 32.6382 9.48122C32.6577 8.44059 32.6819 7.14567 32.07 6.00817C32.0183 5.91208 31.9984 5.8027 32.012 5.69254C32.0235 5.60192 32.0562 5.51754 32.1069 5.4484C32.6189 4.74997 32.9915 4.00524 33.2148 3.23493C33.4747 2.33707 33.2167 1.37243 32.5409 0.717543C31.8571 0.0544574 30.9122 -0.166832 30.0138 0.124184C28.4485 0.631215 26.9728 0.767739 25.6275 0.529848C24.0446 0.250746 22.3655 0.667348 20.8997 1.70387C19.1405 2.94762 17.8384 4.97692 17.5013 6.99938C16.9829 10.1105 18.4681 14.3836 19.1306 16.0763C19.2859 16.473 19.2933 16.9125 19.1517 17.314L19.0275 17.6658C18.8859 18.0673 18.6042 18.4047 18.2347 18.6158C17.7046 18.9189 17.2872 19.4281 17.0597 20.0498L16.9814 20.264C16.6728 21.1074 16.1482 21.874 15.422 22.5425C14.4784 23.4107 13.8036 24.5203 13.4702 25.7513C13.3997 26.0117 13.5536 26.2799 13.814 26.3502C14.0743 26.4215 14.3425 26.2668 14.4128 26.0064C14.6978 24.9537 15.2755 24.0043 16.0833 23.2611C16.9253 22.4859 17.536 21.5904 17.8984 20.5996L17.9767 20.3853C18.1251 19.9799 18.3888 19.6525 18.7193 19.4634C19.2923 19.1359 19.7286 18.6129 19.9482 17.9906L20.0724 17.6388C20.2921 17.0164 20.2806 16.3351 20.0398 15.7203C19.4066 14.1029 17.9857 10.031 18.4642 7.15993C18.7601 5.38512 19.9091 3.59977 21.4632 2.50094C22.3484 1.87497 23.7601 1.19118 25.4573 1.49137C26.9618 1.7568 28.5958 1.60934 30.3142 1.05329C30.8634 0.87477 31.4413 1.01188 31.861 1.41852C32.2827 1.8275 32.4382 2.40485 32.2765 2.96305C32.0853 3.62301 31.7632 4.26481 31.3193 4.87067C31.1702 5.0736 31.0747 5.31579 31.0429 5.57125C31.0038 5.88414 31.0616 6.19508 31.2097 6.47067C31.7005 7.38278 31.6788 8.5361 31.6614 9.46266C31.6581 9.63434 31.6552 9.79899 31.6552 9.95446C31.6552 10.7632 32.2614 11.5478 32.7489 12.1783C32.9038 12.3789 33.1214 12.6605 33.2185 12.8351C32.9153 13.0216 32.6232 13.1566 32.42 13.2404C32.0847 13.3791 31.8683 13.7039 31.8683 14.0681V15.0457L31.4995 15.2558C31.4618 15.2773 31.4271 15.3039 31.3964 15.3347C31.0952 15.6357 31.0482 16.1117 31.2843 16.4664L31.398 16.6371C31.363 16.7609 31.3282 16.9045 31.2915 17.0586C31.245 17.2566 31.1825 17.416 31.1015 17.5455C30.6312 18.2961 29.7921 18.6367 28.9622 18.414C28.6444 18.3285 28.2886 18.223 27.8741 18.0916C27.5898 18.0015 27.2821 18.041 27.0304 18.2015C26.7821 18.3595 26.6179 18.6162 26.5798 18.906C26.4823 19.6486 26.7109 20.4097 27.2228 21.049C27.2616 21.0978 27.2943 21.1556 27.3191 21.2207L27.4859 21.659C27.7179 22.2673 28.0944 22.8273 28.5757 23.2785C29.2122 23.8752 30.1181 24.8131 30.6372 26.0654C30.7151 26.2535 30.8968 26.367 31.0886 26.367C31.1509 26.367 31.2144 26.3549 31.2753 26.3297C31.5243 26.2265 31.6427 25.9408 31.5396 25.6916C30.9485 24.265 29.9462 23.2246 29.2439 22.566C28.8702 22.2158 28.578 21.7818 28.3986 21.3113L28.2318 20.8728C28.1706 20.7131 28.088 20.5674 27.9855 20.439C27.6409 20.0088 27.4855 19.5095 27.5544 19.0257C27.5595 19.0224 27.5677 19.0193 27.5784 19.0224C28.0073 19.1586 28.3773 19.2681 28.7089 19.3572C29.9429 19.6892 31.236 19.1693 31.9292 18.064C32.0683 17.842 32.1704 17.5865 32.2421 17.2832C32.2777 17.1332 32.3112 16.9941 32.3454 16.8763C32.4196 16.6197 32.378 16.3463 32.2312 16.1261L32.1525 16.008L32.479 15.8218C32.5165 15.8004 32.5511 15.774 32.5818 15.7433C32.7489 15.5765 32.845 15.3453 32.845 15.109V14.1213C33.1198 14.0049 33.5116 13.8172 33.9054 13.5548C34.0827 13.4367 34.1989 13.2597 34.2321 13.0568C34.3077 12.5978 33.9609 12.1492 33.522 11.5812Z" fill="black"></path><path d="M9.71631 29.4878C7.56143 29.4878 5.80811 31.2411 5.80811 33.3962C5.80811 35.5511 7.56143 37.3044 9.71631 37.3044C11.8714 37.3044 13.6245 35.5511 13.6245 33.3962C13.6245 31.2411 11.8714 29.4878 9.71631 29.4878ZM9.71631 36.3278C8.0999 36.3278 6.78467 35.0128 6.78467 33.3962C6.78467 31.7796 8.09971 30.4644 9.71631 30.4644C11.3329 30.4644 12.648 31.7794 12.648 33.3962C12.648 35.0128 11.3329 36.3278 9.71631 36.3278Z" fill="black"></path><path d="M11.4586 32.5201C11.2678 32.3292 10.9586 32.3292 10.768 32.5201L9.57427 33.7136L8.82036 32.9597C8.62974 32.7689 8.32036 32.7689 8.12993 32.9597C7.93911 33.1505 7.93911 33.4595 8.12993 33.6501L9.22915 34.7494C9.32446 34.8447 9.44946 34.8923 9.57446 34.8923C9.69946 34.8923 9.82446 34.8447 9.91978 34.7494L11.4586 33.2105C11.6493 33.0199 11.6493 32.7107 11.4586 32.5201Z" fill="black"></path><path d="M23.4146 30.6294H15.9927C15.7229 30.6294 15.5044 30.8479 15.5044 31.1177C15.5044 31.3874 15.7229 31.606 15.9927 31.606H23.4146C23.6843 31.606 23.9028 31.3874 23.9028 31.1177C23.9028 30.8479 23.6843 30.6294 23.4146 30.6294Z" fill="black"></path><path d="M23.4146 32.9082H15.9927C15.7229 32.9082 15.5044 33.1268 15.5044 33.3965C15.5044 33.6662 15.7229 33.8848 15.9927 33.8848H23.4146C23.6843 33.8848 23.9028 33.6662 23.9028 33.3965C23.9028 33.1268 23.6843 32.9082 23.4146 32.9082Z" fill="black"></path><path d="M19.8989 35.1865H15.9927C15.7229 35.1865 15.5044 35.4051 15.5044 35.6748C15.5044 35.9445 15.7229 36.1631 15.9927 36.1631H19.8989C20.1687 36.1631 20.3872 35.9445 20.3872 35.6748C20.3872 35.4051 20.1687 35.1865 19.8989 35.1865Z" fill="black"></path><path d="M9.71631 39.4487C7.56143 39.4487 5.80811 41.2021 5.80811 43.3571C5.80811 45.512 7.56143 47.2653 9.71631 47.2653C11.8714 47.2653 13.6245 45.512 13.6245 43.3571C13.6245 41.2021 11.8714 39.4487 9.71631 39.4487ZM9.71631 46.2888C8.0999 46.2888 6.78467 44.9737 6.78467 43.3571C6.78467 41.7405 8.09971 40.4253 9.71631 40.4253C11.3329 40.4253 12.648 41.7403 12.648 43.3571C12.648 44.9737 11.3329 46.2888 9.71631 46.2888Z" fill="black"></path><path d="M11.4586 42.481C11.2678 42.2902 10.9586 42.2902 10.768 42.481L9.57427 43.6746L8.82036 42.9207C8.62974 42.7298 8.32036 42.7298 8.12993 42.9207C7.93911 43.1115 7.93911 43.4205 8.12993 43.6111L9.22915 44.7103C9.32446 44.8056 9.44946 44.8533 9.57446 44.8533C9.69946 44.8533 9.82446 44.8056 9.91978 44.7103L11.4586 43.1714C11.6493 42.9808 11.6493 42.6716 11.4586 42.481Z" fill="black"></path><path d="M23.4146 40.5903H15.9927C15.7229 40.5903 15.5044 40.8089 15.5044 41.0786C15.5044 41.3483 15.7229 41.5669 15.9927 41.5669H23.4146C23.6843 41.5669 23.9028 41.3483 23.9028 41.0786C23.9028 40.8089 23.6843 40.5903 23.4146 40.5903Z" fill="black"></path><path d="M23.4146 42.8691H15.9927C15.7229 42.8691 15.5044 43.0877 15.5044 43.3574C15.5044 43.6271 15.7229 43.8457 15.9927 43.8457H23.4146C23.6843 43.8457 23.9028 43.6271 23.9028 43.3574C23.9028 43.0877 23.6843 42.8691 23.4146 42.8691Z" fill="black"></path><path d="M19.8989 45.1475H15.9927C15.7229 45.1475 15.5044 45.366 15.5044 45.6357C15.5044 45.9055 15.7229 46.124 15.9927 46.124H19.8989C20.1687 46.124 20.3872 45.9055 20.3872 45.6357C20.3872 45.366 20.1687 45.1475 19.8989 45.1475Z" fill="black"></path><path d="M31.0056 29.4878C28.8505 29.4878 27.0972 31.2411 27.0972 33.3962C27.0972 35.5511 28.8505 37.3044 31.0056 37.3044C33.1604 37.3044 34.9138 35.5511 34.9138 33.3962C34.9138 31.2411 33.1606 29.4878 31.0056 29.4878ZM31.0056 36.3278C29.389 36.3278 28.0737 35.0128 28.0737 33.3962C28.0737 31.7796 29.3888 30.4644 31.0056 30.4644C32.622 30.4644 33.9372 31.7794 33.9372 33.3962C33.9372 35.0128 32.6222 36.3278 31.0056 36.3278Z" fill="black"></path><path d="M32.4285 31.9732C32.2376 31.7824 31.9287 31.7824 31.738 31.9732L29.5826 34.1287C29.3917 34.3195 29.3917 34.6285 29.5826 34.8191C29.6779 34.9144 29.8029 34.9621 29.9279 34.9621C30.0529 34.9621 30.1777 34.9144 30.2732 34.8191L32.4287 32.6636C32.6191 32.473 32.6191 32.164 32.4285 31.9732Z" fill="black"></path><path d="M32.4284 34.1287L30.2729 31.9732C30.0821 31.7824 29.7731 31.7824 29.5825 31.9732C29.3919 32.164 29.3917 32.473 29.5825 32.6636L31.738 34.8191C31.8333 34.9144 31.9583 34.9621 32.0833 34.9621C32.2083 34.9621 32.3331 34.9144 32.4286 34.8191C32.619 34.6285 32.619 34.3195 32.4284 34.1287Z" fill="black"></path><path d="M44.7036 30.6294H37.2817C37.012 30.6294 36.7935 30.8479 36.7935 31.1177C36.7935 31.3874 37.012 31.606 37.2817 31.606H44.7036C44.9733 31.606 45.1919 31.3874 45.1919 31.1177C45.1919 30.8479 44.9733 30.6294 44.7036 30.6294Z" fill="black"></path><path d="M44.7036 32.9082H37.2817C37.012 32.9082 36.7935 33.1268 36.7935 33.3965C36.7935 33.6662 37.012 33.8848 37.2817 33.8848H44.7036C44.9733 33.8848 45.1919 33.6662 45.1919 33.3965C45.1919 33.1268 44.9733 32.9082 44.7036 32.9082Z" fill="black"></path><path d="M41.188 35.1865H37.2817C37.012 35.1865 36.7935 35.4051 36.7935 35.6748C36.7935 35.9445 37.012 36.1631 37.2817 36.1631H41.188C41.4577 36.1631 41.6763 35.9445 41.6763 35.6748C41.6763 35.4051 41.4577 35.1865 41.188 35.1865Z" fill="black"></path><path d="M44.7036 40.5903H37.2817C37.012 40.5903 36.7935 40.8089 36.7935 41.0786C36.7935 41.3483 37.012 41.5669 37.2817 41.5669H44.7036C44.9733 41.5669 45.1919 41.3483 45.1919 41.0786C45.1919 40.8089 44.9733 40.5903 44.7036 40.5903Z" fill="black"></path><path d="M44.7036 42.8691H37.2817C37.012 42.8691 36.7935 43.0877 36.7935 43.3574C36.7935 43.6271 37.012 43.8457 37.2817 43.8457H44.7036C44.9733 43.8457 45.1919 43.6271 45.1919 43.3574C45.1919 43.0877 44.9733 42.8691 44.7036 42.8691Z" fill="black"></path><path d="M41.188 45.1475H37.2817C37.012 45.1475 36.7935 45.366 36.7935 45.6357C36.7935 45.9055 37.012 46.124 37.2817 46.124H41.188C41.4577 46.124 41.6763 45.9055 41.6763 45.6357C41.6763 45.366 41.4577 45.1475 41.188 45.1475Z" fill="black"></path><path d="M31.0056 39.4487C28.8505 39.4487 27.0972 41.2021 27.0972 43.3571C27.0972 45.512 28.8505 47.2653 31.0056 47.2653C33.1604 47.2653 34.9138 45.512 34.9138 43.3571C34.9138 41.2021 33.1606 39.4487 31.0056 39.4487ZM31.0056 46.2888C29.389 46.2888 28.0737 44.9737 28.0737 43.3571C28.0737 41.7405 29.3888 40.4253 31.0056 40.4253C32.622 40.4253 33.9372 41.7403 33.9372 43.3571C33.9372 44.9737 32.6222 46.2888 31.0056 46.2888Z" fill="black"></path><path d="M32.4285 41.9341C32.2376 41.7433 31.9287 41.7433 31.738 41.9341L29.5826 44.0896C29.3917 44.2804 29.3917 44.5894 29.5826 44.78C29.6779 44.8753 29.8029 44.923 29.9279 44.923C30.0529 44.923 30.1777 44.8753 30.2732 44.78L32.4287 42.6246C32.6191 42.4339 32.6191 42.125 32.4285 41.9341Z" fill="black"></path><path d="M32.4284 44.0896L30.2729 41.9341C30.0821 41.7433 29.7731 41.7433 29.5825 41.9341C29.3919 42.125 29.3917 42.4339 29.5825 42.6246L31.738 44.78C31.8333 44.8753 31.9583 44.923 32.0833 44.923C32.2083 44.923 32.3331 44.8753 32.4286 44.78C32.619 44.5894 32.619 44.2804 32.4284 44.0896Z" fill="black"></path></g><defs><clipPath id="clip0_606_2539"><rect width="50" height="50" fill="white" transform="translate(0.5)"></rect></clipPath></defs></svg>