<svg xmlns="http://www.w3.org/2000/svg" width="51" height="50" viewBox="0 0 51 50" fill="none"><path d="M47.2406 42.322L41.7719 36.8532C40.5906 35.672 38.5344 35.672 37.3531 36.8532C36.7625 37.4438 36.4375 38.2282 36.4375 39.0626C36.4375 39.897 36.7625 40.6813 37.3531 41.272L42.8219 46.7407C43.4125 47.3313 44.1969 47.6563 45.0312 47.6563C45.8656 47.6563 46.65 47.3313 47.2406 46.7407C47.8312 46.1501 48.1562 45.3657 48.1562 44.5313C48.1562 43.697 47.8312 42.9126 47.2406 42.322Z" fill="#FD5B1B"></path><path d="M48.0219 44.3969C47.4312 44.9875 46.6469 45.3125 45.8125 45.3125C44.9781 45.3125 44.1938 44.9875 43.6031 44.3969L37.3531 38.1469C37.1578 37.9531 37.0047 37.7313 36.8703 37.5C36.5969 37.9719 36.4375 38.5031 36.4375 39.0625C36.4375 39.8969 36.7625 40.6812 37.3531 41.2719L42.8219 46.7406C43.4125 47.3312 44.1969 47.6562 45.0312 47.6562C45.8656 47.6562 46.65 47.3312 47.2406 46.7406C47.8312 46.15 48.1562 45.3656 48.1562 44.5312C48.1562 44.4406 48.1375 44.3547 48.1297 44.2656C48.0922 44.3078 48.0625 44.3562 48.0219 44.3969Z" fill="#42CCD7"></path><path d="M13.0391 31.8922C14.0406 28.9563 14.8562 25.6156 15.4047 21.8141C15.8984 18.4094 19.0625 16.0703 22.4781 16.5547C25.8938 17.0453 28.2656 20.2375 27.7766 23.65C27.2906 27.0125 26.6203 30.1063 25.8 32.9531" stroke="#FD5B1B" stroke-width="1.5" stroke-miterlimit="10" stroke-linecap="round" stroke-linejoin="round"></path><path d="M29.4513 31.3908C30.0185 29.1001 30.495 26.6705 30.8685 24.0939C31.606 18.9689 28.0403 14.1986 22.9153 13.4595C17.7763 12.722 13.0481 16.283 12.3106 21.3689C11.8435 24.6048 11.1747 27.4767 10.3638 30.0251" stroke="#FD5B1B" stroke-width="1.5" stroke-miterlimit="10" stroke-linecap="round" stroke-linejoin="round"></path><path d="M18.8062 34.3829C19.9968 30.9892 20.9562 27.1392 21.5874 22.772" stroke="#FD5B1B" stroke-width="1.5" stroke-miterlimit="10" stroke-linecap="round" stroke-linejoin="round"></path><path d="M24.5124 24.3282C24.5718 23.9625 24.628 23.5907 24.6812 23.2172C24.9265 21.5094 23.7421 19.925 22.0358 19.6782C20.3108 19.4329 18.7421 20.6172 18.4952 22.3235C17.8921 26.5047 16.9765 30.1719 15.8452 33.3907" stroke="#FD5B1B" stroke-width="1.5" stroke-miterlimit="10" stroke-linecap="round" stroke-linejoin="round"></path><path d="M22.3169 33.6906C22.9435 31.7188 23.495 29.6156 23.9575 27.3672" stroke="#FD5B1B" stroke-width="1.5" stroke-miterlimit="10" stroke-linecap="round" stroke-linejoin="round"></path><path d="M8.31689 25.6529C8.66377 24.1795 8.96221 22.6045 9.20596 20.9217C10.1935 14.1232 16.5247 9.40448 23.3544 10.3654C30.1841 11.3514 34.9419 17.7076 33.9591 24.5357C33.82 25.4967 33.6669 26.4373 33.5028 27.3592" stroke="#FD5B1B" stroke-width="1.5" stroke-miterlimit="10" stroke-linecap="round" stroke-linejoin="round"></path><path d="M27.3623 8.22656C29.3576 9.02188 31.1326 10.2109 32.6076 11.6844" stroke="#FD5B1B" stroke-width="1.5" stroke-miterlimit="10" stroke-linecap="round" stroke-linejoin="round"></path><path d="M6.1123 20.475C6.15293 20.1969 6.20137 19.9219 6.25449 19.6484C7.86543 11.6141 15.5732 6.10937 23.7873 7.27343" stroke="#FD5B1B" stroke-width="1.5" stroke-miterlimit="10" stroke-linecap="round" stroke-linejoin="round"></path><path d="M44.6467 41.4795L40.7404 37.5732C40.4357 37.2686 39.9404 37.2686 39.6357 37.5732C39.3311 37.8779 39.3311 38.3732 39.6357 38.6779L43.542 42.5842C43.6951 42.7373 43.8936 42.8123 44.0951 42.8123C44.2936 42.8123 44.4951 42.7357 44.6482 42.5842C44.9514 42.2795 44.9514 41.7842 44.6467 41.4795Z" fill="#F5C84C"></path><path d="M37.397 36.853L33.647 33.103" stroke="#092D64" stroke-width="2" stroke-miterlimit="10" stroke-linecap="round" stroke-linejoin="round"></path><path d="M47.2406 42.322L41.7719 36.8532C40.5906 35.672 38.5344 35.672 37.3531 36.8532C36.7625 37.4438 36.4375 38.2282 36.4375 39.0626C36.4375 39.897 36.7625 40.6813 37.3531 41.272L42.8219 46.7407C43.4125 47.3313 44.1969 47.6563 45.0312 47.6563C45.8656 47.6563 46.65 47.3313 47.2406 46.7407C47.8312 46.1501 48.1562 45.3657 48.1562 44.5313C48.1562 43.697 47.8312 42.9126 47.2406 42.322Z" stroke="#092D64" stroke-miterlimit="10"></path><path d="M27.022 41.2938C20.9517 43.0845 14.2595 42.1907 8.81104 38.6079" stroke="#092D64" stroke-miterlimit="10" stroke-linecap="round" stroke-linejoin="round"></path><path d="M39.2891 8.59229C42.7437 14.0267 43.5656 20.6485 41.7562 26.647" stroke="#092D64" stroke-miterlimit="10" stroke-linecap="round" stroke-linejoin="round"></path><path d="M20.8125 38.2812C10.9047 38.2812 2.84375 30.2203 2.84375 20.3125C2.84375 10.4047 10.9047 2.34375 20.8125 2.34375C30.7203 2.34375 38.7812 10.4047 38.7812 20.3125C38.7812 30.2203 30.7203 38.2812 20.8125 38.2812Z" stroke="#092D64" stroke-width="3" stroke-miterlimit="10"></path><path d="M5.78125 36.5312L5.96875 36.7188" stroke="#092D64" stroke-miterlimit="10" stroke-linecap="round" stroke-linejoin="round"></path><path d="M37.0312 5.28125L37.2188 5.46875" stroke="#092D64" stroke-miterlimit="10" stroke-linecap="round" stroke-linejoin="round"></path></svg>