<svg xmlns="http://www.w3.org/2000/svg" width="51" height="50" viewBox="0 0 51 50" fill="none"><path d="M33.0923 11.7188H10.5101C9.84248 11.7188 9.30127 12.26 9.30127 12.9275V46.6426C9.30127 47.3102 9.84248 47.8514 10.5101 47.8514H29.3571L34.3013 42.9072V12.9275C34.3011 12.26 33.7599 11.7188 33.0923 11.7188Z" fill="#9BE5F9"></path><path d="M42.0767 2.14844H19.4944C18.8269 2.14844 18.2856 2.68965 18.2856 3.35723V11.7188H33.0923C33.7599 11.7188 34.3011 12.26 34.3011 12.9275V38.2812H38.3413L43.2854 33.3371V3.35723C43.2854 2.68965 42.7442 2.14844 42.0767 2.14844Z" fill="#5290DB"></path><path d="M20.0968 25.1953H12.7638C12.4696 25.1953 12.231 25.4338 12.231 25.7281V32.9945C12.231 33.3254 12.4993 33.5938 12.8302 33.5938H20.0302C20.361 33.5938 20.6294 33.3254 20.6294 32.9945V25.7281C20.6294 25.4338 20.3909 25.1953 20.0968 25.1953Z" fill="#FCDD86"></path><path d="M30.839 14.6484H12.7638C12.4696 14.6484 12.231 14.8869 12.231 15.1812V18.4127C12.231 18.7068 12.4694 18.9455 12.7638 18.9455H30.839C31.1331 18.9455 31.3718 18.707 31.3718 18.4127V15.1812C31.3716 14.8869 31.1331 14.6484 30.839 14.6484Z" fill="#EDF4FC"></path><path d="M30.5657 42.9072C29.8981 42.9072 29.3569 43.4484 29.3569 44.116V47.8514L34.3011 42.9072H30.5657Z" fill="#CBEFF7"></path><path d="M39.8233 5.07812H21.7481C21.454 5.07812 21.2153 5.3166 21.2153 5.61094V8.84238C21.2153 9.13652 21.4538 9.3752 21.7481 9.3752H39.8233C40.1175 9.3752 40.3562 9.13672 40.3562 8.84238V5.61094C40.356 5.3166 40.1175 5.07812 39.8233 5.07812Z" fill="#EDF4FC"></path><path d="M39.5501 33.3369C38.8825 33.3369 38.3413 33.8781 38.3413 34.5457V38.2811L43.2855 33.3369H39.5501Z" fill="#6CADEF"></path><path d="M43.0718 44.7461H43.0523H42.603V44.2969C42.603 43.9453 42.3296 43.6719 41.978 43.6719C41.646 43.6719 41.353 43.9453 41.353 44.2773V44.2969V44.7461H40.9038C40.5523 44.7461 40.2788 45.0195 40.2788 45.3711C40.2593 45.7031 40.5327 45.9961 40.9038 45.9961H41.353V46.4453C41.353 46.7969 41.6265 47.0703 41.978 47.0703C42.3101 47.0703 42.603 46.7969 42.603 46.4648V46.4453V45.9961H43.0523C43.4038 45.9961 43.6773 45.7227 43.6773 45.3711C43.6773 45.0391 43.4038 44.7461 43.0718 44.7461Z" fill="#70D6F9"></path><path d="M15.0054 0C14.6386 0 14.3413 0.297266 14.3413 0.664062C14.3413 1.03086 14.6386 1.32812 15.0054 1.32812C15.3722 1.32812 15.6694 1.03086 15.6694 0.664062C15.6694 0.297266 15.3722 0 15.0054 0Z" fill="#FC657E"></path><path d="M6.98682 30.3076C6.38135 30.1904 5.89307 29.7217 5.77588 29.1162C5.77588 29.0967 5.71728 29.0967 5.71728 29.1162C5.6001 29.7217 5.11182 30.1904 4.50635 30.3076C4.48682 30.3076 4.48682 30.3467 4.50635 30.3662C5.11182 30.4834 5.6001 30.9521 5.71728 31.5576C5.71728 31.5771 5.77588 31.5771 5.77588 31.5576C5.89307 30.9521 6.38135 30.4834 6.98682 30.3662C7.00635 30.3467 7.00635 30.3076 6.98682 30.3076Z" fill="#87D147"></path><path d="M35.9355 48.6719C35.5687 48.6719 35.2715 48.9691 35.2715 49.3359C35.2715 49.7027 35.5687 50 35.9355 50C36.3023 50 36.5996 49.7027 36.5996 49.3359C36.5996 48.9691 36.3023 48.6719 35.9355 48.6719Z" fill="#F5C84C"></path><path d="M12.8462 5.50781C11.9673 5.35156 11.2837 4.66797 11.1079 3.80859C11.1079 3.76953 11.0298 3.76953 11.0298 3.80859C10.854 4.66797 10.1704 5.35156 9.2915 5.50781C9.25244 5.50781 9.25244 5.56641 9.2915 5.58594C10.1704 5.74219 10.854 6.42578 11.0298 7.28516C11.0298 7.32422 11.1079 7.32422 11.1079 7.28516C11.2837 6.42578 11.9673 5.74219 12.8462 5.58594C12.8853 5.56641 12.8853 5.50781 12.8462 5.50781Z" fill="#F5C84C"></path><path d="M33.0923 11.2305H10.5101C9.57432 11.2305 8.81299 11.9918 8.81299 12.9275V46.6426C8.81299 47.5785 9.57432 48.3396 10.5101 48.3396H29.3571C29.4866 48.3396 29.6108 48.2883 29.7024 48.1967L34.6464 43.2527C34.738 43.1611 34.7894 43.0371 34.7894 42.9074V12.9275C34.7896 11.9918 34.028 11.2305 33.0923 11.2305ZM33.813 42.7053L29.155 47.3633H10.5101C10.1128 47.3633 9.78955 47.04 9.78955 46.6428V12.9275C9.78955 12.5303 10.1128 12.207 10.5101 12.207H33.0923C33.4896 12.207 33.8128 12.5303 33.8128 12.9275V42.7053H33.813Z" fill="black"></path><path d="M23.7544 20.5078H19.8481C19.5784 20.5078 19.3599 20.7264 19.3599 20.9961C19.3599 21.2658 19.5784 21.4844 19.8481 21.4844H23.7544C24.0241 21.4844 24.2427 21.2658 24.2427 20.9961C24.2427 20.7264 24.0239 20.5078 23.7544 20.5078Z" fill="black"></path><path d="M22.3481 22.2656H21.2544C20.9847 22.2656 20.7661 22.4842 20.7661 22.7539C20.7661 23.0236 20.9847 23.2422 21.2544 23.2422H22.3481C22.6179 23.2422 22.8364 23.0236 22.8364 22.7539C22.8364 22.4842 22.6179 22.2656 22.3481 22.2656Z" fill="black"></path><path d="M30.7856 25.0049H23.1685C22.8987 25.0049 22.6802 25.2234 22.6802 25.4932C22.6802 25.7629 22.8987 25.9814 23.1685 25.9814H30.7856C31.0554 25.9814 31.2739 25.7629 31.2739 25.4932C31.2739 25.2234 31.0552 25.0049 30.7856 25.0049Z" fill="black"></path><path d="M30.7856 27.0654H23.1685C22.8987 27.0654 22.6802 27.284 22.6802 27.5537C22.6802 27.8234 22.8987 28.042 23.1685 28.042H30.7856C31.0554 28.042 31.2739 27.8234 31.2739 27.5537C31.2739 27.284 31.0552 27.0654 30.7856 27.0654Z" fill="black"></path><path d="M30.7856 29.126H23.1685C22.8987 29.126 22.6802 29.3445 22.6802 29.6143C22.6802 29.884 22.8987 30.1025 23.1685 30.1025H30.7856C31.0554 30.1025 31.2739 29.884 31.2739 29.6143C31.2739 29.3445 31.0552 29.126 30.7856 29.126Z" fill="black"></path><path d="M30.7856 31.1865H23.1685C22.8987 31.1865 22.6802 31.4051 22.6802 31.6748C22.6802 31.9445 22.8987 32.1631 23.1685 32.1631H30.7856C31.0554 32.1631 31.2739 31.9445 31.2739 31.6748C31.2739 31.4051 31.0552 31.1865 30.7856 31.1865Z" fill="black"></path><path d="M30.7856 33.2471H23.1685C22.8987 33.2471 22.6802 33.4656 22.6802 33.7354C22.6802 34.0051 22.8987 34.2236 23.1685 34.2236H30.7856C31.0554 34.2236 31.2739 34.0051 31.2739 33.7354C31.2739 33.4656 31.0552 33.2471 30.7856 33.2471Z" fill="black"></path><path d="M30.7856 35.3076H23.1685C22.8987 35.3076 22.6802 35.5262 22.6802 35.7959C22.6802 36.0656 22.8987 36.2842 23.1685 36.2842H30.7856C31.0554 36.2842 31.2739 36.0656 31.2739 35.7959C31.2739 35.5262 31.0552 35.3076 30.7856 35.3076Z" fill="black"></path><path d="M30.7856 37.3682H23.1685C22.8987 37.3682 22.6802 37.5867 22.6802 37.8564C22.6802 38.1262 22.8987 38.3447 23.1685 38.3447H30.7856C31.0554 38.3447 31.2739 38.1262 31.2739 37.8564C31.2739 37.5867 31.0552 37.3682 30.7856 37.3682Z" fill="black"></path><path d="M30.7856 39.4287H23.1685C22.8987 39.4287 22.6802 39.6473 22.6802 39.917C22.6802 40.1867 22.8987 40.4053 23.1685 40.4053H30.7856C31.0554 40.4053 31.2739 40.1867 31.2739 39.917C31.2739 39.6473 31.0552 39.4287 30.7856 39.4287Z" fill="black"></path><path d="M27.1724 41.4893H23.1685C22.8987 41.4893 22.6802 41.7078 22.6802 41.9775C22.6802 42.2473 22.8987 42.4658 23.1685 42.4658H27.1724C27.4421 42.4658 27.6606 42.2473 27.6606 41.9775C27.6606 41.7078 27.4419 41.4893 27.1724 41.4893Z" fill="black"></path><path d="M27.1724 43.5498H23.1685C22.8987 43.5498 22.6802 43.7684 22.6802 44.0381C22.6802 44.3078 22.8987 44.5264 23.1685 44.5264H27.1724C27.4421 44.5264 27.6606 44.3078 27.6606 44.0381C27.6606 43.7684 27.4419 43.5498 27.1724 43.5498Z" fill="black"></path><path d="M20.4341 35.3076H12.8169C12.5472 35.3076 12.3286 35.5262 12.3286 35.7959C12.3286 36.0656 12.5472 36.2842 12.8169 36.2842H20.4341C20.7038 36.2842 20.9224 36.0656 20.9224 35.7959C20.9224 35.5262 20.7038 35.3076 20.4341 35.3076Z" fill="black"></path><path d="M20.4341 37.3682H12.8169C12.5472 37.3682 12.3286 37.5867 12.3286 37.8564C12.3286 38.1262 12.5472 38.3447 12.8169 38.3447H20.4341C20.7038 38.3447 20.9224 38.1262 20.9224 37.8564C20.9224 37.5867 20.7038 37.3682 20.4341 37.3682Z" fill="black"></path><path d="M20.4341 39.4287H12.8169C12.5472 39.4287 12.3286 39.6473 12.3286 39.917C12.3286 40.1867 12.5472 40.4053 12.8169 40.4053H20.4341C20.7038 40.4053 20.9224 40.1867 20.9224 39.917C20.9224 39.6473 20.7038 39.4287 20.4341 39.4287Z" fill="black"></path><path d="M20.4341 41.4893H12.8169C12.5472 41.4893 12.3286 41.7078 12.3286 41.9775C12.3286 42.2473 12.5472 42.4658 12.8169 42.4658H20.4341C20.7038 42.4658 20.9224 42.2473 20.9224 41.9775C20.9224 41.7078 20.7038 41.4893 20.4341 41.4893Z" fill="black"></path><path d="M20.4341 43.5498H12.8169C12.5472 43.5498 12.3286 43.7684 12.3286 44.0381C12.3286 44.3078 12.5472 44.5264 12.8169 44.5264H20.4341C20.7038 44.5264 20.9224 44.3078 20.9224 44.0381C20.9224 43.7684 20.7038 43.5498 20.4341 43.5498Z" fill="black"></path><path d="M42.0767 1.66016H19.4944C18.5587 1.66016 17.7974 2.42148 17.7974 3.35723V11.5049C17.7974 11.7746 18.0159 11.9932 18.2856 11.9932C18.5554 11.9932 18.7739 11.7746 18.7739 11.5049V3.35723C18.7739 2.95996 19.0972 2.63672 19.4944 2.63672H42.0767C42.4739 2.63672 42.7972 2.95996 42.7972 3.35723V33.1348L38.1394 37.793H34.5901C34.3204 37.793 34.1019 38.0115 34.1019 38.2812C34.1019 38.551 34.3204 38.7695 34.5901 38.7695H38.3415C38.471 38.7695 38.5952 38.7182 38.6868 38.6266L43.6308 33.6826C43.7224 33.591 43.7737 33.467 43.7737 33.3373V3.35723C43.7739 2.42148 43.0124 1.66016 42.0767 1.66016Z" fill="black"></path><path d="M39.77 15.4346H34.4966C34.2269 15.4346 34.0083 15.6531 34.0083 15.9229C34.0083 16.1926 34.2269 16.4111 34.4966 16.4111H39.77C40.0397 16.4111 40.2583 16.1926 40.2583 15.9229C40.2583 15.6531 40.0396 15.4346 39.77 15.4346Z" fill="black"></path><path d="M39.77 17.4951H34.4966C34.2269 17.4951 34.0083 17.7137 34.0083 17.9834C34.0083 18.2531 34.2269 18.4717 34.4966 18.4717H39.77C40.0397 18.4717 40.2583 18.2531 40.2583 17.9834C40.2583 17.7137 40.0396 17.4951 39.77 17.4951Z" fill="black"></path><path d="M39.77 19.5557H34.4966C34.2269 19.5557 34.0083 19.7742 34.0083 20.0439C34.0083 20.3137 34.2269 20.5322 34.4966 20.5322H39.77C40.0397 20.5322 40.2583 20.3137 40.2583 20.0439C40.2583 19.7742 40.0396 19.5557 39.77 19.5557Z" fill="black"></path><path d="M39.77 21.6162H34.4966C34.2269 21.6162 34.0083 21.8348 34.0083 22.1045C34.0083 22.3742 34.2269 22.5928 34.4966 22.5928H39.77C40.0397 22.5928 40.2583 22.3742 40.2583 22.1045C40.2583 21.8348 40.0396 21.6162 39.77 21.6162Z" fill="black"></path><path d="M39.77 23.6768H34.4966C34.2269 23.6768 34.0083 23.8953 34.0083 24.165C34.0083 24.4348 34.2269 24.6533 34.4966 24.6533H39.77C40.0397 24.6533 40.2583 24.4348 40.2583 24.165C40.2583 23.8953 40.0396 23.6768 39.77 23.6768Z" fill="black"></path><path d="M39.77 25.7373H34.4966C34.2269 25.7373 34.0083 25.9559 34.0083 26.2256C34.0083 26.4953 34.2269 26.7139 34.4966 26.7139H39.77C40.0397 26.7139 40.2583 26.4953 40.2583 26.2256C40.2583 25.9559 40.0396 25.7373 39.77 25.7373Z" fill="black"></path><path d="M39.77 27.7979H34.4966C34.2269 27.7979 34.0083 28.0164 34.0083 28.2861C34.0083 28.5559 34.2269 28.7744 34.4966 28.7744H39.77C40.0397 28.7744 40.2583 28.5559 40.2583 28.2861C40.2583 28.0164 40.0396 27.7979 39.77 27.7979Z" fill="black"></path><path d="M39.77 29.8584H34.4966C34.2269 29.8584 34.0083 30.077 34.0083 30.3467C34.0083 30.6164 34.2269 30.835 34.4966 30.835H39.77C40.0397 30.835 40.2583 30.6164 40.2583 30.3467C40.2583 30.077 40.0396 29.8584 39.77 29.8584Z" fill="black"></path><path d="M36.1567 31.9189H34.4966C34.2269 31.9189 34.0083 32.1375 34.0083 32.4072C34.0083 32.677 34.2269 32.8955 34.4966 32.8955H36.1567C36.4265 32.8955 36.645 32.677 36.645 32.4072C36.645 32.1375 36.4263 31.9189 36.1567 31.9189Z" fill="black"></path><path d="M36.1567 33.9795H34.4966C34.2269 33.9795 34.0083 34.198 34.0083 34.4678C34.0083 34.7375 34.2269 34.9561 34.4966 34.9561H36.1567C36.4265 34.9561 36.645 34.7375 36.645 34.4678C36.645 34.198 36.4263 33.9795 36.1567 33.9795Z" fill="black"></path><path d="M20.0968 24.707H12.7638C12.2007 24.707 11.7427 25.165 11.7427 25.7281V32.9947C11.7427 33.5943 12.2304 34.0822 12.83 34.0822H20.03C20.6296 34.0822 21.1175 33.5943 21.1175 32.9947V25.7281C21.1177 25.165 20.6599 24.707 20.0968 24.707ZM20.1411 32.9945C20.1411 33.0557 20.0913 33.1055 20.0302 33.1055H12.8302C12.769 33.1055 12.7194 33.0557 12.7194 32.9945V25.7279C12.7194 25.7035 12.7396 25.6834 12.764 25.6834H20.097C20.1214 25.6834 20.1415 25.7033 20.1415 25.7279V32.9945H20.1411Z" fill="black"></path><path d="M30.839 14.1602H12.7638C12.2007 14.1602 11.7427 14.6182 11.7427 15.1812V18.4127C11.7427 18.9756 12.2007 19.4338 12.7638 19.4338H30.839C31.4021 19.4338 31.8601 18.9758 31.8601 18.4127V15.1812C31.8601 14.6182 31.4021 14.1602 30.839 14.1602ZM30.8835 18.4125C30.8835 18.4369 30.8634 18.457 30.839 18.457H12.7638C12.7394 18.457 12.7192 18.4371 12.7192 18.4125V15.1812C12.7192 15.1568 12.7394 15.1367 12.7638 15.1367H30.839C30.8634 15.1367 30.8835 15.1566 30.8835 15.1812V18.4125Z" fill="black"></path><path d="M34.1749 42.4194H30.5657C29.63 42.4194 28.8687 43.1808 28.8687 44.1165V47.6892C28.8687 47.9589 29.0872 48.1774 29.3569 48.1774C29.6267 48.1774 29.8452 47.9589 29.8452 47.6892V44.1165C29.8452 43.7192 30.1685 43.396 30.5657 43.396H34.1749C34.4446 43.396 34.6632 43.1774 34.6632 42.9077C34.6632 42.638 34.4446 42.4194 34.1749 42.4194Z" fill="black"></path><path d="M39.8233 4.58984H21.7481C21.1851 4.58984 20.7271 5.04785 20.7271 5.61094V8.84238C20.7271 9.40527 21.1851 9.86348 21.7481 9.86348H39.8233C40.3864 9.86348 40.8444 9.40547 40.8444 8.84238V5.61094C40.8444 5.04785 40.3864 4.58984 39.8233 4.58984ZM39.8679 8.84219C39.8679 8.8666 39.8478 8.88672 39.8233 8.88672H21.7481C21.7237 8.88672 21.7036 8.8668 21.7036 8.84219V5.61094C21.7036 5.58652 21.7237 5.56641 21.7481 5.56641H39.8233C39.8478 5.56641 39.8679 5.58633 39.8679 5.61094V8.84219Z" fill="black"></path><path d="M43.1905 32.8491H39.5501C38.6144 32.8491 37.853 33.6105 37.853 34.5462V38.1921C37.853 38.4618 38.0716 38.6804 38.3413 38.6804C38.611 38.6804 38.8296 38.4618 38.8296 38.1921V34.5462C38.8296 34.1489 39.1528 33.8257 39.5501 33.8257H43.1905C43.4603 33.8257 43.6788 33.6071 43.6788 33.3374C43.6788 33.0677 43.4603 32.8491 43.1905 32.8491Z" fill="black"></path></svg>