<svg xmlns="http://www.w3.org/2000/svg" width="51" height="50" viewBox="0 0 51 50" fill="none"><g clip-path="url(#clip0_606_2542)"><path d="M33.3446 15.5931C33.3446 11.2604 29.8323 7.74854 25.5001 7.74854C21.1681 7.74854 17.6558 11.2604 17.6558 15.5931C17.6558 19.9245 21.1681 23.4374 25.5001 23.4374C29.8322 23.4374 33.3446 19.9245 33.3446 15.5931Z" fill="#092D64"></path><path d="M17.3655 28.5234H4.81445V32.2495H17.3655V28.5234Z" fill="#092D64"></path><path d="M46.3821 32.2495H4.81445V39.5547H46.3821V32.2495Z" fill="#FD5B1B"></path><path d="M4.81426 22.6401H1.48047V42.2513H4.81426V22.6401Z" fill="#FD5B1B"></path><path d="M49.5196 22.6401H46.3818V42.2513H49.5196V22.6401Z" fill="#FD5B1B"></path><path d="M49.5194 21.6597H46.3816C45.8401 21.6597 45.4011 22.0987 45.4011 22.6402V31.2691H18.346V28.5235C18.346 27.982 17.9069 27.543 17.3654 27.543H5.79492V22.6402C5.79492 22.0987 5.35586 21.6597 4.81436 21.6597H1.48057C0.939063 21.6597 0.5 22.0987 0.5 22.6402V42.2514C0.5 42.793 0.939063 43.2319 1.48057 43.2319H4.81436C5.35586 43.2319 5.79492 42.793 5.79492 42.2514V40.5354H45.4012V42.2514C45.4012 42.793 45.8402 43.2319 46.3817 43.2319H49.5195C50.061 43.2319 50.5001 42.793 50.5001 42.2514V22.6402C50.5 22.0988 50.061 21.6597 49.5194 21.6597ZM16.3849 29.5041V31.2691H5.79492V29.5041H16.3849ZM3.83379 41.2708H2.46113V23.6208H3.83379V28.5235V32.2496V39.5548V41.2708ZM5.79492 38.5743V33.2303H17.3654H45.4011V38.5743H5.79492ZM48.5389 41.2708H47.3622V39.5548V32.2496V23.6207H48.5389V41.2708Z" fill="black"></path><path d="M36.3826 35.4941H14.6144C14.0728 35.4941 13.6338 35.9332 13.6338 36.4747C13.6338 37.0162 14.0728 37.4553 14.6144 37.4553H36.3827C36.9243 37.4553 37.3633 37.0162 37.3633 36.4747C37.3632 35.9332 36.9242 35.4941 36.3826 35.4941Z" fill="black"></path><path d="M43.0467 35.4941H39.5167C38.9752 35.4941 38.5361 35.9332 38.5361 36.4747C38.5361 37.0162 38.9752 37.4553 39.5167 37.4553H43.0467C43.5882 37.4553 44.0272 37.0162 44.0272 36.4747C44.0272 35.9332 43.5883 35.4941 43.0467 35.4941Z" fill="black"></path><path d="M11.4803 35.4941H7.95029C7.40879 35.4941 6.96973 35.9332 6.96973 36.4747C6.96973 37.0162 7.40879 37.4553 7.95029 37.4553H11.4803C12.0218 37.4553 12.4608 37.0162 12.4608 36.4747C12.4608 35.9332 12.0218 35.4941 11.4803 35.4941Z" fill="black"></path><path d="M25.4997 24.4181C30.3659 24.4181 34.3248 20.4593 34.3248 15.5932C34.3248 10.727 30.3659 6.76807 25.4997 6.76807C20.6336 6.76807 16.6748 10.727 16.6748 15.5932C16.6748 20.4593 20.6337 24.4181 25.4997 24.4181ZM25.4997 8.7292C29.2846 8.7292 32.3637 11.8083 32.3637 15.5932C32.3637 19.3779 29.2846 22.4569 25.4997 22.4569C21.7149 22.4569 18.6359 19.3779 18.6359 15.5932C18.6359 11.8083 21.715 8.7292 25.4997 8.7292Z" fill="black"></path><path d="M21.5764 16.5733H24.5194V19.515C24.5194 20.0565 24.9584 20.4956 25.5 20.4956C26.0415 20.4956 26.4806 20.0565 26.4806 19.515V16.5733H29.4209C29.9625 16.5733 30.4015 16.1343 30.4015 15.5928C30.4015 15.0512 29.9625 14.6122 29.4209 14.6122H26.4805V11.6705C26.4805 11.129 26.0414 10.6899 25.4999 10.6899C24.9583 10.6899 24.5193 11.129 24.5193 11.6705V14.6122H21.5763C21.0347 14.6122 20.5957 15.0512 20.5957 15.5928C20.5958 16.1343 21.0349 16.5733 21.5764 16.5733Z" fill="black"></path></g><defs><clipPath id="clip0_606_2542"><rect width="50" height="50" fill="white" transform="translate(0.5)"></rect></clipPath></defs></svg>