<svg xmlns="http://www.w3.org/2000/svg" width="51" height="50" viewBox="0 0 51 50" fill="none"><path d="M33.3431 6.07861H42.4585C43.9156 6.07861 45.1078 7.25352 45.1078 8.68936V46.4088C45.1078 47.8447 43.9156 49.0197 42.4584 49.0197H8.54141C7.08428 49.0197 5.89209 47.8447 5.89209 46.4089V8.68945C5.89209 7.25361 7.08428 6.07871 8.54141 6.07871H17.6568" fill="#092D64"></path><path d="M41.1865 10H9.81396V44.5471H41.1865V10Z" fill="white"></path><path d="M32.0358 4.70576H29.4212C29.4212 2.54082 27.6656 0.980469 25.4998 0.980469C23.334 0.980469 21.5782 2.54082 21.5782 4.70566H18.9638C18.242 4.70566 17.6567 5.2918 17.6567 6.01289V10.0001H33.343V6.01309C33.3432 5.29189 32.7584 4.70576 32.0358 4.70576Z" fill="#FD5B1B"></path><path d="M32.7549 22.3701C32.7549 18.3632 29.5065 15.1152 25.5 15.1152C21.4935 15.1152 18.2451 18.3632 18.2451 22.3701C18.2451 26.3762 21.4935 29.625 25.5 29.625C29.5065 29.625 32.7549 26.3763 32.7549 22.3701Z" fill="#42CCD7"></path><path d="M42.4582 5.09805H34.1317C33.778 4.29092 32.9719 3.72529 32.0356 3.72529H30.2993C29.8414 1.57266 27.8971 0 25.4997 0C23.1022 0 21.1578 1.57266 20.7 3.72529H18.9638C18.0277 3.72529 17.2215 4.29092 16.8678 5.09805H8.54131C6.53984 5.09805 4.91162 6.70898 4.91162 8.68926V46.4087C4.91152 48.389 6.53984 50 8.54131 50H42.4583C44.4598 50 46.0881 48.389 46.0881 46.4087V8.68926C46.0881 6.70898 44.4597 5.09805 42.4582 5.09805ZM18.637 6.01299C18.637 5.83281 18.7836 5.68613 18.9637 5.68613H22.5585V4.70566C22.5585 3.14082 23.8229 1.96084 25.4997 1.96084C27.1764 1.96084 28.4407 3.14082 28.4407 4.70566V5.68604H32.0357C32.2159 5.68604 32.3626 5.83271 32.3626 6.01289V9.01953H18.637V6.01299ZM34.3233 10.9804H40.2057V43.5669H10.7939V10.9804H16.6763H34.3233ZM44.1272 46.4087C44.1272 47.3078 43.3785 48.0392 42.4583 48.0392H8.54131C7.621 48.0392 6.87236 47.3077 6.87236 46.4087V8.68926C6.87236 7.79023 7.621 7.05889 8.54131 7.05889H16.6763V9.01963H9.81357C9.27207 9.01963 8.8332 9.45859 8.8332 10V44.5474C8.8332 45.0889 9.27217 45.5277 9.81357 45.5277H41.1861C41.7276 45.5277 42.1665 45.0888 42.1665 44.5474V10C42.1665 9.4585 41.7275 9.01963 41.1861 9.01963H34.3233V7.05879H42.4583C43.3785 7.05879 44.1272 7.79014 44.1272 8.68916V46.4087Z" fill="black"></path><path d="M25.4998 6.4708C26.3647 6.4708 27.0685 5.76709 27.0685 4.90215C27.0685 4.03721 26.3647 3.3335 25.4998 3.3335C24.6349 3.3335 23.9312 4.03721 23.9312 4.90215C23.9312 5.76709 24.6348 6.4708 25.4998 6.4708ZM25.4998 4.50996C25.7161 4.50996 25.892 4.68584 25.892 4.90215C25.892 5.11846 25.7161 5.29434 25.4998 5.29434C25.2835 5.29434 25.1076 5.11846 25.1076 4.90215C25.1076 4.68584 25.2835 4.50996 25.4998 4.50996Z" fill="black"></path><path d="M18.5391 34.1177H16.3822C15.8407 34.1177 15.4019 34.5566 15.4019 35.098C15.4019 35.6396 15.8408 36.0784 16.3822 36.0784H18.5391C19.0806 36.0784 19.5194 35.6395 19.5194 35.098C19.5194 34.5565 19.0805 34.1177 18.5391 34.1177Z" fill="black"></path><path d="M20.6963 35.098C20.6963 35.6396 21.1353 36.0784 21.6767 36.0784H34.6179C35.1594 36.0784 35.5982 35.6395 35.5982 35.098C35.5982 34.5565 35.1593 34.1177 34.6179 34.1177H21.6767C21.1352 34.1177 20.6963 34.5565 20.6963 35.098Z" fill="black"></path><path d="M18.5391 38.8237H16.3822C15.8407 38.8237 15.4019 39.2627 15.4019 39.8041C15.4019 40.3456 15.8408 40.7845 16.3822 40.7845H18.5391C19.0806 40.7845 19.5194 40.3455 19.5194 39.8041C19.5194 39.2627 19.0805 38.8237 18.5391 38.8237Z" fill="black"></path><path d="M34.6179 38.8237H21.6767C21.1352 38.8237 20.6963 39.2627 20.6963 39.8041C20.6963 40.3456 21.1353 40.7845 21.6767 40.7845H34.6179C35.1594 40.7845 35.5982 40.3455 35.5982 39.8041C35.5982 39.2627 35.1593 38.8237 34.6179 38.8237Z" fill="black"></path><path d="M25.4999 30.6054C30.0409 30.6054 33.7352 26.911 33.7352 22.3701C33.7352 17.8292 30.0409 14.1348 25.4999 14.1348C20.9589 14.1348 17.2646 17.8291 17.2646 22.37C17.2646 26.9109 20.9589 30.6054 25.4999 30.6054ZM25.4999 16.0956C28.9597 16.0956 31.7744 18.9104 31.7744 22.3701C31.7744 25.8299 28.9597 28.6446 25.4999 28.6446C22.0401 28.6446 19.2254 25.8299 19.2254 22.3701C19.2254 18.9104 22.0401 16.0956 25.4999 16.0956Z" fill="black"></path><path d="M23.7854 25.6715C23.9529 25.8391 24.166 25.9331 24.3848 25.9541C24.416 25.9571 24.4475 25.9586 24.4787 25.9586C24.5101 25.9586 24.5415 25.9571 24.5727 25.9541C24.7914 25.9332 25.0044 25.839 25.172 25.6715C25.1722 25.6714 25.1723 25.6712 25.1725 25.671L29.845 20.9982C30.2278 20.6154 30.2278 19.9946 29.845 19.6118C29.4622 19.229 28.8414 19.229 28.4586 19.6119L24.4787 23.5917L23.4939 22.6069C23.1111 22.2241 22.4903 22.2241 22.1074 22.6069C21.7246 22.9897 21.7246 23.6105 22.1074 23.9934L23.7854 25.6715Z" fill="black"></path></svg>