<svg xmlns="http://www.w3.org/2000/svg" width="51" height="50" viewBox="0 0 51 50" fill="none"><g clip-path="url(#clip0_604_2537)"><path d="M25.4988 28.3352H25.5064C31.7229 24.8803 40.2071 18.4645 40.2071 10.3558C40.2071 6.06377 36.7148 2.58447 32.4067 2.58447C29.4133 2.58447 26.8144 4.26455 25.5065 6.72959H25.4989H25.5027H25.4951C24.1873 4.26445 21.5883 2.58447 18.5949 2.58447C14.2867 2.58447 10.7944 6.06367 10.7944 10.3558C10.7944 18.4645 19.2786 24.8803 25.495 28.3352H25.5026H25.4988Z" fill="#FF1A1A"></path><path d="M9.91211 27.5312H1.48047V44.0023H9.91211V27.5312Z" fill="#092D64"></path><path d="M49.2107 34.1831C48.5169 32.8596 46.8813 32.349 45.5581 33.0427L35.9432 38.0789L35.9419 38.079C36.7367 37.6076 37.2698 36.7414 37.2698 35.7504C37.2698 34.2562 36.0585 33.0445 34.5642 33.0445H25.2772C25.2772 33.0445 23.7361 28.9014 19.8145 28.9014C16.3356 28.9014 9.91211 28.9014 9.91211 28.9014L9.91221 41.4331L28.3091 47.2874C28.5819 47.3742 28.8584 47.4156 29.1302 47.4156L29.1309 47.4115L29.1318 47.4154C29.5551 47.4154 29.9848 47.3157 30.3856 47.1058L48.0706 37.8357C49.3938 37.1421 49.9044 35.5066 49.2107 34.1831Z" fill="#FCDDC9"></path><path d="M50.0792 33.7281C49.6221 32.8561 48.8526 32.2143 47.9127 31.9207C46.9727 31.627 45.9748 31.7174 45.1033 32.1743L38.2501 35.7641C38.2501 35.7595 38.2504 35.7551 38.2504 35.7505C38.2504 33.7179 36.5968 32.0642 34.5643 32.0642H25.9081C25.245 30.7575 23.3934 27.921 19.8145 27.921H10.8925V27.5308C10.8925 26.9894 10.4535 26.5503 9.91201 26.5503H1.48047C0.938965 26.5503 0.5 26.9894 0.5 27.5308V44.0019C0.5 44.5433 0.938965 44.9823 1.48047 44.9823H9.91211C10.4536 44.9823 10.8926 44.5433 10.8926 44.0019V42.7741L28.0117 48.2218C28.3753 48.3375 28.7516 48.3961 29.1302 48.3961C29.1376 48.3961 29.1452 48.396 29.1526 48.3958C29.7373 48.3925 30.3205 48.2468 30.8408 47.9741L48.5258 38.704C50.3258 37.7606 51.0228 35.5284 50.0792 33.7281ZM2.46084 43.0217V28.5114H8.93164V41.4246C8.93164 41.4267 8.93164 41.429 8.93164 41.4312V43.0217H2.46084ZM47.6153 36.9677L29.9305 46.2377C29.6945 46.3613 29.4424 46.4276 29.1802 46.4348C29.1512 46.4334 29.1218 46.4332 29.0923 46.4343C29.0881 46.4345 29.0839 46.4347 29.0797 46.4349C28.9201 46.4302 28.761 46.4029 28.6063 46.3536L10.8925 40.7167V29.8821H19.8145C22.9912 29.8821 24.3051 33.2465 24.3583 33.3866C24.5011 33.7705 24.8676 34.0253 25.2772 34.0253H34.5643C35.5155 34.0253 36.2896 34.7993 36.2896 35.7508C36.2896 36.7021 35.5156 37.4762 34.5643 37.4762H25.5008C24.9593 37.4762 24.5203 37.9152 24.5203 38.4566C24.5203 38.9981 24.9593 39.4371 25.5008 39.4371H34.5642C35.2262 39.4371 35.8474 39.2608 36.3849 38.9541C36.3892 38.9519 36.3937 38.9503 36.3981 38.9479L46.0134 33.9115C46.4214 33.6977 46.8884 33.6557 47.3283 33.7928C47.7684 33.9302 48.1284 34.2307 48.3425 34.6388C48.7841 35.4811 48.4579 36.5261 47.6153 36.9677Z" fill="black"></path><path d="M28.6057 42.7538L26.2018 41.9902C25.6857 41.826 25.1345 42.1117 24.9706 42.6278C24.8066 43.144 25.0922 43.6951 25.6082 43.8591L28.012 44.6227C28.1107 44.654 28.2107 44.6691 28.3091 44.6691C28.7248 44.6691 29.1106 44.4025 29.2433 43.9851C29.4072 43.469 29.1218 42.9177 28.6057 42.7538Z" fill="black"></path><path d="M23.6248 41.1699L13.156 37.8373C12.6398 37.6735 12.0886 37.9582 11.9244 38.4742C11.7601 38.9903 12.0453 39.5416 12.5613 39.706L23.0301 43.0385C23.129 43.0698 23.2292 43.085 23.3277 43.085C23.7432 43.085 24.1289 42.8187 24.2617 42.4016C24.426 41.8857 24.1408 41.3343 23.6248 41.1699Z" fill="black"></path><path d="M25.0186 29.1921C25.136 29.2573 25.2702 29.2976 25.4053 29.3107C25.4359 29.3138 25.467 29.3154 25.4985 29.3155C25.4993 29.3155 25.4997 29.3155 25.5004 29.3155C25.5012 29.3156 25.5019 29.3155 25.5025 29.3155H25.5063C25.673 29.3155 25.8369 29.2729 25.9826 29.1921C28.7462 27.6562 32.71 25.121 35.8984 21.766C39.408 18.0733 41.1874 14.2343 41.1874 10.3558C41.1874 5.52998 37.2483 1.604 32.4066 1.604C29.677 1.604 27.1483 2.85508 25.5007 4.94844C23.8531 2.85518 21.3245 1.604 18.5948 1.604C13.753 1.604 9.81396 5.52998 9.81396 10.3558C9.81396 14.2344 11.5935 18.0733 15.1028 21.766C18.2912 25.1209 22.2549 27.6562 25.0186 29.1921ZM18.5947 3.56484C21.1308 3.56484 23.4429 4.95352 24.6288 7.18906C24.7611 7.43857 24.9971 7.61533 25.2663 7.68135C25.3406 7.6998 25.4184 7.70957 25.4982 7.70996C25.4985 7.71006 25.4995 7.70996 25.5002 7.70996C25.5007 7.70996 25.5018 7.70996 25.5025 7.70996C25.5038 7.70996 25.5051 7.70996 25.5063 7.70996C25.8692 7.70996 26.2024 7.50957 26.3725 7.18896C27.5584 4.95342 29.8705 3.56475 32.4065 3.56475C36.1671 3.56475 39.2265 6.61113 39.2265 10.3557C39.2265 13.7146 37.6286 17.0991 34.4771 20.4152C31.6341 23.4066 28.11 25.7261 25.5005 27.2133C22.8911 25.7261 19.3669 23.4066 16.5239 20.4152C13.3725 17.0992 11.7746 13.7148 11.7746 10.3558C11.7747 6.61123 14.8341 3.56484 18.5947 3.56484Z" fill="black"></path><path d="M35.7473 8.54464C36.1316 9.21016 36.3349 9.97139 36.3349 10.7458C36.3349 11.3426 36.1884 12.01 35.8996 12.7292C35.6979 13.2316 35.9417 13.8025 36.4443 14.0043C36.5641 14.0524 36.6876 14.0752 36.8092 14.0752C37.1979 14.0752 37.5656 13.8425 37.7195 13.4598C38.1019 12.5071 38.2958 11.5941 38.2958 10.7458C38.2958 9.62755 38.0018 8.52725 37.4455 7.56407C37.1747 7.09512 36.5751 6.93438 36.1062 7.20548C35.6371 7.47608 35.4765 8.07579 35.7473 8.54464Z" fill="black"></path><path d="M31.9238 6.33477C32.7524 6.33477 33.5597 6.56553 34.2581 7.00205C34.4197 7.10293 34.5993 7.15117 34.7768 7.15117C35.1035 7.15117 35.423 6.98779 35.6091 6.69023C35.8961 6.23096 35.7564 5.62617 35.2973 5.33926C34.2869 4.70791 33.1203 4.37402 31.9238 4.37402C31.3823 4.37402 30.9434 4.81309 30.9434 5.35449C30.9434 5.8959 31.3823 6.33477 31.9238 6.33477Z" fill="black"></path></g><defs><clipPath id="clip0_604_2537"><rect width="50" height="50" fill="white" transform="translate(0.5)"></rect></clipPath></defs></svg>