<svg xmlns="http://www.w3.org/2000/svg" width="51" height="51" viewBox="0 0 51 51" fill="none"><g clip-path="url(#clip0_563_3427)"><path d="M32.2338 3.55078H18.942C17.8039 3.55078 16.8779 4.47656 16.8779 5.61484V11.2199C16.8779 16.3107 20.1197 20.8189 24.9445 22.4381C25.3621 22.5781 25.8186 22.5764 26.2313 22.4381C31.0561 20.8189 34.2979 16.3107 34.2979 11.2199V5.61484C34.2979 4.47656 33.3719 3.55078 32.2338 3.55078Z" fill="#FCDD86"></path><path d="M32.2342 5.56641H18.9424C18.9154 5.56641 18.8936 5.58828 18.8936 5.61504V11.2201C18.8936 15.4439 21.583 19.1846 25.5859 20.5277C29.5934 19.1844 32.283 15.4439 32.283 11.2201V5.61523C32.283 5.58828 32.2611 5.56641 32.2342 5.56641Z" fill="#F5C84C"></path><path d="M32.9726 26.1338L31.7667 27.3063C30.9089 28.0945 29.9716 28.5777 29.0218 28.7223L27.5864 28.9852C26.2241 29.2312 24.9694 29.8877 23.9905 30.8666C23.0771 31.7801 23.1882 31.6689 22.3749 32.4822C21.7995 33.0576 21.7995 33.9988 22.3749 34.5742C22.9501 35.1494 23.8915 35.1494 24.4669 34.5742L25.6407 33.4229L33.1327 40.9309L34.8276 39.2359C35.2476 38.816 35.5989 38.333 35.8692 37.8043L36.3532 36.8572C36.6499 36.2768 37.0358 35.7463 37.4968 35.2852L39.8103 32.9717L32.9726 26.1338Z" fill="#B6724C"></path><path d="M33.075 40.8738C32.1895 39.9883 26.8996 34.6846 26.8996 34.6846L25.6414 33.4236L24.4676 34.575C23.8971 35.1455 22.9664 35.1502 22.3898 34.5891C21.799 34.0139 21.8209 33.0379 22.4039 32.4547C23.1863 31.6723 23.0885 31.7701 23.9912 30.8676C24.4742 30.3846 25.0246 29.9803 25.6219 29.6648C25.0088 29.341 24.3467 29.1107 23.6566 28.9861L22.2213 28.7232C21.2717 28.5787 20.3342 28.0955 19.4764 27.3072L18.2705 26.1348L11.4326 32.9727L13.7461 35.2861C14.207 35.7471 14.593 36.2775 14.8896 36.858L15.3736 37.8051C15.6439 38.3338 15.9953 38.8168 16.4152 39.2367C18.3008 41.1223 22.7076 45.5291 24.2225 47.0439L24.2227 47.0438C24.7281 47.5492 25.5514 47.5957 26.0803 47.1148C26.6447 46.6014 26.6605 45.727 26.1277 45.1932L27.4426 46.508C27.9611 47.0258 28.8014 47.0256 29.3195 46.5074C29.8381 45.9889 29.8381 45.1482 29.3195 44.6297C29.8381 45.1482 30.6787 45.1482 31.1973 44.6297C31.7156 44.1113 31.7158 43.2713 31.198 42.7527C31.7166 43.2705 32.5568 43.2703 33.075 42.752C33.5936 42.233 33.5936 41.3924 33.075 40.8738Z" fill="#B6724C"></path><path d="M42.8306 30.9207L35.0177 23.1078C34.9642 23.0543 34.9176 22.9965 34.8775 22.9355L32.615 25.1979C32.4552 25.3576 32.4551 25.617 32.615 25.7768L40.1613 33.323C40.3213 33.483 40.5804 33.4828 40.7402 33.323L43.0027 31.0605C42.9422 31.0209 42.8844 30.9742 42.8306 30.9207Z" fill="#DAE6F1"></path><path d="M47.0255 26.3076L47.0147 26.2984L39.6417 18.9254C39.6386 18.9217 39.6356 18.9181 39.6325 18.9144C39.1478 18.3416 38.2677 18.325 37.737 18.8554L35.019 21.5736C34.5952 21.9974 34.5952 22.6845 35.019 23.1084L42.8319 30.9213C43.2558 31.3451 43.9429 31.3451 44.3667 30.9213L47.0847 28.2031C47.6149 27.6724 47.5983 26.7922 47.0255 26.3076Z" fill="#FD5B1B"></path><path d="M16.1575 21.6411L13.4395 18.9229C12.9088 18.3922 12.0286 18.409 11.544 18.9819L11.5348 18.9926L4.16177 26.3657C4.15806 26.3688 4.15454 26.3717 4.15083 26.3749C3.57798 26.8594 3.56118 27.7399 4.09185 28.2704L6.80981 30.9883C7.23364 31.4122 7.92075 31.4122 8.34458 30.9883L16.1575 23.1754C16.5813 22.752 16.5813 22.0647 16.1575 21.6411Z" fill="#092D64"></path><path d="M18.5598 25.2652L16.2973 23.0029C16.2572 23.0639 16.2107 23.1217 16.157 23.1752L8.34414 30.9881C8.29062 31.0416 8.23262 31.0881 8.17188 31.1283L10.4344 33.3906C10.5943 33.5504 10.8535 33.5506 11.0133 33.3906L18.5598 25.8441C18.7197 25.6842 18.7197 25.425 18.5598 25.2652Z" fill="#DAE6F1"></path><path d="M28.9656 10.2262C28.574 9.83477 27.9392 9.83477 27.5476 10.2262L25.2923 12.4814L23.9089 11.098C23.5173 10.7066 22.8824 10.7066 22.491 11.098C22.0994 11.4896 22.0994 12.1244 22.491 12.516L24.5834 14.6084C24.7792 14.8041 25.0357 14.902 25.2923 14.902C25.549 14.902 25.8054 14.8041 26.0013 14.6084L28.9654 11.6443C29.357 11.2525 29.357 10.6178 28.9656 10.2262Z" fill="#EDF4FC"></path><path d="M7.01466 35.4805H6.54591V35.0312C6.54591 34.6797 6.27247 34.4062 5.92091 34.4062C5.58887 34.4062 5.29591 34.6797 5.29591 35.0117V35.4805H4.84669C4.49512 35.4805 4.22169 35.7539 4.22169 36.1055C4.20216 36.4375 4.47559 36.7305 4.84669 36.7305H5.29591V37.1797C5.29591 37.5312 5.56934 37.8047 5.92091 37.8047C6.25294 37.8047 6.54591 37.5312 6.54591 37.1992V36.7305H6.99512C7.34669 36.7305 7.62012 36.457 7.62012 36.1055C7.62012 35.7734 7.34669 35.4805 7.01466 35.4805Z" fill="#42CCD7"></path><path d="M49.9238 20.5195C49.557 20.5195 49.2598 20.8168 49.2598 21.1836C49.2598 21.5504 49.557 21.8477 49.9238 21.8477C50.2906 21.8477 50.5879 21.5504 50.5879 21.1836C50.5879 20.8168 50.2906 20.5195 49.9238 20.5195Z" fill="#092D64"></path><path d="M12.7266 11.2764C12.1211 11.1592 11.6328 10.6904 11.5156 10.085C11.5156 10.0654 11.457 10.0654 11.457 10.085C11.3398 10.6904 10.8516 11.1592 10.2461 11.2764C10.2266 11.2764 10.2266 11.3154 10.2461 11.335C10.8516 11.4521 11.3398 11.9209 11.457 12.5264C11.457 12.5459 11.5156 12.5459 11.5156 12.5264C11.6328 11.9209 12.1211 11.4521 12.7266 11.335C12.7461 11.3154 12.7461 11.2764 12.7266 11.2764Z" fill="#FC657E"></path><path d="M1.25195 30.5781C0.885156 30.5781 0.587891 30.8754 0.587891 31.2422C0.587891 31.609 0.885156 31.9063 1.25195 31.9063C1.61875 31.9063 1.91602 31.609 1.91602 31.2422C1.91602 30.8754 1.61875 30.5781 1.25195 30.5781Z" fill="#F5C84C"></path><path d="M48.0781 15.7734C47.1992 15.6172 46.5156 14.9336 46.3398 14.0742C46.3398 14.0352 46.2617 14.0352 46.2617 14.0742C46.0859 14.9336 45.4023 15.6172 44.5234 15.7734C44.4844 15.7734 44.4844 15.832 44.5234 15.8516C45.4023 16.0078 46.0859 16.6914 46.2617 17.5508C46.2617 17.5898 46.3398 17.5898 46.3398 17.5508C46.5156 16.6914 47.1992 16.0078 48.0781 15.8516C48.1172 15.832 48.1172 15.7734 48.0781 15.7734Z" fill="#F5C84C"></path><path d="M27.7878 46.1626L21.7583 40.1333C21.5677 39.9425 21.2583 39.9425 21.0679 40.1333C20.8771 40.324 20.8771 40.6332 21.0679 40.8238L27.0974 46.8531C27.1927 46.9484 27.3177 46.996 27.4427 46.996C27.5677 46.996 27.6927 46.9484 27.788 46.8531C27.9787 46.6625 27.9787 46.3533 27.7878 46.1626Z" fill="black"></path><path d="M32.0449 33.4017C31.9724 33.1417 31.7031 32.9901 31.4437 33.062C28.7927 33.7991 26.7556 32.2804 26.7361 32.2655C26.5441 32.1177 26.273 32.1329 26.0988 32.3013L25.3013 33.0718C25.1074 33.2591 25.1021 33.5683 25.2894 33.7622C25.4769 33.9562 25.7859 33.9616 25.9799 33.7741L26.4951 33.2763C27.0767 33.6284 28.3263 34.2446 29.9519 34.2446C30.4974 34.2446 31.0857 34.1753 31.7049 34.003C31.965 33.9306 32.117 33.6614 32.0449 33.4017Z" fill="black"></path><path d="M31.5427 42.4068L25.5132 36.3775C25.3226 36.1867 25.0132 36.1867 24.8228 36.3775C24.632 36.5681 24.632 36.8773 24.8228 37.0679L30.8523 43.0972C30.9476 43.1925 31.0726 43.2402 31.1976 43.2402C31.3226 43.2402 31.4476 43.1925 31.5429 43.0972C31.7334 42.9066 31.7333 42.5974 31.5427 42.4068Z" fill="black"></path><path d="M29.665 44.2839L23.6363 38.2554C23.4457 38.0646 23.1363 38.0646 22.9458 38.2554C22.755 38.446 22.755 38.7552 22.9458 38.9459L28.9746 44.9744C29.0699 45.0697 29.1949 45.1173 29.3199 45.1173C29.4449 45.1173 29.5699 45.0697 29.6652 44.9744C29.8556 44.7837 29.8556 44.4746 29.665 44.2839Z" fill="black"></path><path d="M32.2338 3.0625H18.942C17.5346 3.0625 16.3896 4.20742 16.3896 5.61465V11.2197C16.3896 16.5207 19.7652 21.2148 24.7893 22.9008C25.0467 22.9871 25.3172 23.0305 25.5879 23.0305C25.8584 23.0305 26.1291 22.9873 26.3867 22.9008C31.4107 21.2148 34.7861 16.5205 34.7861 11.2197V5.61484C34.7861 4.20742 33.6412 3.0625 32.2338 3.0625ZM33.8096 11.2199C33.8096 16.1008 30.7016 20.423 26.0762 21.9752C25.7611 22.0805 25.4145 22.0807 25.0998 21.9752C20.474 20.423 17.366 16.1008 17.366 11.2199V5.61484C17.366 4.74609 18.073 4.03926 18.9418 4.03926H32.2336C33.1025 4.03926 33.8094 4.74609 33.8094 5.61484V11.2199H33.8096Z" fill="black"></path><path d="M32.2342 5.07812H18.9424C18.6461 5.07812 18.4053 5.31895 18.4053 5.61523V11.2203C18.4053 15.6543 21.2285 19.5809 25.4307 20.9908C25.4811 21.0076 25.5336 21.0162 25.5859 21.0162C25.6383 21.0162 25.6908 21.0078 25.741 20.991C29.9459 19.5816 32.7711 15.6551 32.7711 11.2203V5.61523C32.7713 5.31895 32.5303 5.07812 32.2342 5.07812ZM31.7947 11.2203C31.7947 15.1799 29.3066 18.692 25.5861 20.0115C21.8682 18.6914 19.3818 15.1793 19.3818 11.2203V6.05469H31.7947V11.2203Z" fill="black"></path><path d="M40.0273 32.7551C39.8367 32.5643 39.5273 32.5643 39.3369 32.7551L37.1521 34.9399C36.6541 35.4377 36.2393 36.0081 35.9189 36.635L35.4348 37.5821C35.1871 38.0663 34.867 38.5065 34.4828 38.8907L33.1334 40.2399L25.9865 33.078C25.7971 32.8883 25.4902 32.8868 25.299 33.0743L24.1219 34.229C23.7354 34.6153 23.1068 34.6153 22.7203 34.229C22.5344 34.0428 22.4318 33.794 22.4318 33.5282C22.4318 33.2624 22.5342 33.0135 22.7203 32.8274L24.3359 31.212C25.2486 30.2991 26.4027 29.6954 27.6744 29.4657L29.0953 29.2053C30.1354 29.0471 31.1734 28.5149 32.107 27.6567L33.1865 26.6069C33.3799 26.419 33.3842 26.1098 33.1963 25.9165C33.0082 25.7229 32.699 25.719 32.5059 25.9067L31.4363 26.9469C30.6561 27.6637 29.7959 28.1108 28.9338 28.242L27.4994 28.5047C26.032 28.7696 24.6994 29.467 23.6451 30.5213L22.0295 32.1368C21.659 32.5071 21.4551 33.0012 21.4551 33.528C21.4551 34.0547 21.659 34.5489 22.0295 34.9194C22.7969 35.6864 24.0449 35.6864 24.8086 34.9227L25.6369 34.1104L32.7871 41.2756C32.8787 41.3672 33.0027 41.4188 33.1324 41.419H33.1326C33.2621 41.419 33.3863 41.3676 33.4779 41.276L35.1729 39.5811C35.6293 39.1249 36.0098 38.6016 36.3039 38.0264L36.7881 37.0793C37.0619 36.5436 37.4166 36.0561 37.8422 35.6303L40.027 33.4456C40.218 33.2549 40.218 32.9457 40.0273 32.7551Z" fill="black"></path><path d="M33.4205 40.5285C33.2296 40.3376 32.9207 40.3376 32.7298 40.5285C32.539 40.7193 32.539 41.0283 32.7298 41.2191C33.0572 41.5464 33.0572 42.0791 32.7298 42.4064C32.4027 42.7334 31.8703 42.7335 31.5431 42.4068C31.3523 42.2164 31.0433 42.2166 30.8529 42.407C30.6623 42.5976 30.6621 42.9066 30.8527 43.0972C30.8529 43.0976 30.8535 43.0982 30.8535 43.0982C31.1793 43.4257 31.1789 43.9574 30.8521 44.2841C30.6935 44.4427 30.4828 44.53 30.2585 44.53C30.0343 44.53 29.8234 44.4427 29.665 44.2841C29.4742 44.0933 29.1652 44.0935 28.9744 44.2841C28.8791 44.3794 28.8314 44.5044 28.8314 44.6294C28.8314 44.7544 28.8791 44.8792 28.9744 44.9748C29.3017 45.3021 29.3017 45.8347 28.9744 46.1621C28.6472 46.489 28.115 46.4892 27.7878 46.1628L26.473 44.848C26.2824 44.6572 25.9734 44.6572 25.7826 44.8478C25.5918 45.0384 25.5916 45.3474 25.7822 45.5382C25.9459 45.7023 26.033 45.9203 26.0273 46.1519C26.0218 46.3833 25.9238 46.597 25.7517 46.7539C25.4259 47.0503 24.8947 47.0255 24.5677 46.6988L16.7605 38.8916C16.3763 38.5074 16.056 38.0671 15.8084 37.583L15.3244 36.6357C15.0039 36.0087 14.5888 35.4384 14.0912 34.9408L11.9029 32.7525C11.7123 32.5617 11.4029 32.5617 11.2125 32.7525C11.0216 32.9431 11.0216 33.2523 11.2125 33.4429L13.4007 35.6312C13.8261 36.0568 14.1808 36.5441 14.4548 37.08L14.9388 38.0271C15.2328 38.6023 15.6134 39.1255 16.0701 39.5818L23.8775 47.389C24.2445 47.7562 24.7238 47.9416 25.2001 47.9416C25.6345 47.9416 26.0666 47.7873 26.4087 47.4759C26.6519 47.2548 26.8263 46.9806 26.9212 46.6773L27.0974 46.8535C27.8054 47.5603 28.957 47.5601 29.6648 46.8525C30.0347 46.4824 30.2113 45.9914 30.1947 45.5056C30.6986 45.5222 31.1845 45.3328 31.5425 44.9748C31.9126 44.6046 32.0894 44.1128 32.0724 43.6267C32.5585 43.6429 33.0501 43.4669 33.4203 43.0968C34.1285 42.3888 34.1285 41.2367 33.4205 40.5285Z" fill="black"></path><path d="M25.7768 29.1942C25.1352 28.8646 24.4508 28.6325 23.7444 28.505L22.2944 28.2396C21.4467 28.1106 20.5864 27.6636 19.8163 26.9563L18.7475 25.9173C18.5543 25.7296 18.2454 25.7339 18.0571 25.9271C17.8692 26.1204 17.8735 26.4296 18.0668 26.6175L19.1456 27.6661C20.0692 28.5147 21.1071 29.047 22.1329 29.2028L23.5694 29.4661C24.1823 29.5767 24.7747 29.7776 25.3303 30.0632C25.4018 30.0999 25.478 30.1173 25.5532 30.1173C25.7303 30.1173 25.9012 30.0204 25.9879 29.852C26.1112 29.6118 26.0166 29.3175 25.7768 29.1942Z" fill="black"></path><path d="M43.2926 30.7712C43.102 30.5804 42.7926 30.5804 42.6021 30.7712L40.4514 32.9218L33.0166 25.4871L35.1672 23.3365C35.358 23.1458 35.358 22.8367 35.1672 22.646C34.9766 22.4552 34.6672 22.4552 34.4768 22.646L32.2703 24.8525C31.9203 25.2025 31.9203 25.772 32.2703 26.1218L39.8168 33.6683C39.9918 33.8433 40.2217 33.9308 40.4516 33.9308C40.6814 33.9308 40.9113 33.8433 41.0863 33.6683L43.2928 31.4619C43.4832 31.271 43.4832 30.9619 43.2926 30.7712Z" fill="black"></path><path d="M47.3445 25.9376L40 18.5931C39.6822 18.2202 39.2352 18.0036 38.7402 17.9829C38.2365 17.9626 37.7461 18.1538 37.391 18.5093L34.6729 21.2274C34.3756 21.5245 34.2119 21.9196 34.2119 22.3399C34.2119 22.7603 34.3756 23.1554 34.6729 23.4524L42.4855 31.2653C42.7826 31.5626 43.1777 31.7263 43.5982 31.7263C44.0186 31.7263 44.4137 31.5626 44.7107 31.2653L47.4289 28.5474C47.7842 28.1921 47.9762 27.7003 47.9553 27.198C47.9346 26.7028 47.7176 26.2556 47.3445 25.9376ZM46.7383 27.8569L44.0201 30.5751C43.7871 30.8077 43.4086 30.8075 43.1758 30.5751L35.3631 22.7622C35.2504 22.6495 35.1883 22.4997 35.1883 22.3401C35.1883 22.1808 35.2504 22.031 35.3631 21.9181L38.0813 19.1999C38.2359 19.0452 38.4473 18.9581 38.6654 18.9581C38.6768 18.9581 38.6881 18.9583 38.6994 18.9589C38.9205 18.9681 39.1191 19.064 39.2672 19.239C39.2762 19.2497 39.2855 19.2599 39.2955 19.2696L46.6686 26.6427C46.6785 26.6526 46.6889 26.6622 46.6996 26.6712L46.7098 26.6796C46.8744 26.8192 46.9701 27.0177 46.9795 27.2386C46.9889 27.4689 46.901 27.694 46.7383 27.8569Z" fill="black"></path><path d="M16.5027 21.2949L13.7846 18.5769C13.4291 18.2215 12.9347 18.0283 12.4351 18.0506C11.9447 18.0709 11.5014 18.2838 11.176 18.6599L3.83084 26.0051C3.4576 26.3228 3.2408 26.7703 3.2203 27.2656C3.1994 27.7677 3.39119 28.2595 3.74666 28.615L6.46463 31.333C6.7617 31.6302 7.15682 31.7939 7.57733 31.7939C7.99764 31.7939 8.39276 31.6302 8.68983 31.333L16.5027 23.5201C17.1162 22.9066 17.1162 21.9084 16.5027 21.2949ZM15.8123 22.8297L7.9994 30.6426C7.76639 30.8752 7.38787 30.875 7.15506 30.6426L4.43709 27.9246C4.2744 27.7617 4.18651 27.5365 4.19608 27.3062C4.20526 27.0851 4.30135 26.8865 4.46053 26.7515C4.46405 26.7486 4.4785 26.7365 4.48182 26.7336C4.49041 26.726 4.49881 26.7181 4.50682 26.7101L11.8799 19.3371C11.8894 19.3275 11.9078 19.3068 11.9166 19.2965C12.056 19.1314 12.2547 19.0355 12.4758 19.0263C12.4873 19.026 12.4986 19.0258 12.5099 19.0258C12.7281 19.0258 12.9394 19.1129 13.0941 19.2676L15.8121 21.9857C16.0449 22.2181 16.0449 22.5969 15.8123 22.8297Z" fill="black"></path><path d="M18.9052 24.9205L16.7023 22.7173C16.5117 22.5265 16.2023 22.5265 16.0119 22.7173C15.821 22.908 15.821 23.2171 16.0119 23.4078L18.1589 25.555L10.7244 32.9898L8.58647 30.8523C8.39585 30.6615 8.08647 30.6615 7.89604 30.8523C7.70522 31.0429 7.70522 31.3521 7.89604 31.5427L10.0896 33.7363C10.2646 33.9113 10.4945 33.9986 10.7244 33.9986C10.9542 33.9986 11.1841 33.9111 11.3591 33.7361L18.9054 26.1898C19.0751 26.0203 19.1685 25.7949 19.1685 25.555C19.1685 25.3152 19.0748 25.0898 18.9052 24.9205Z" fill="black"></path><path d="M29.3109 9.8811C28.7295 9.30005 27.7838 9.30005 27.2025 9.8811L25.2926 11.7911L24.2543 10.7528C23.6729 10.1717 22.7271 10.1717 22.1459 10.753C21.5646 11.3344 21.5646 12.2801 22.1459 12.8614L24.2385 14.954C24.5203 15.2354 24.8945 15.3905 25.2926 15.3905C25.6908 15.3905 26.065 15.2354 26.3467 14.9538L29.3109 11.9897C29.8922 11.4083 29.8922 10.4624 29.3109 9.8811ZM28.6203 11.2991L25.6563 14.2631C25.4619 14.4575 25.1232 14.4573 24.9287 14.2631L22.8363 12.1708C22.6359 11.9702 22.6359 11.6438 22.8363 11.4434C22.9365 11.3432 23.0684 11.293 23.2 11.293C23.3318 11.293 23.4635 11.3432 23.5637 11.4434L24.9471 12.8268C25.0387 12.9184 25.1629 12.9698 25.2924 12.9698C25.4219 12.9698 25.5461 12.9182 25.6377 12.8268L27.8928 10.5717C28.0932 10.3713 28.4195 10.3713 28.6203 10.5717C28.8209 10.7721 28.8209 11.0985 28.6203 11.2991Z" fill="black"></path></g><defs><clipPath id="clip0_563_3427"><rect width="50" height="50" fill="white" transform="translate(0.587891 0.5)"></rect></clipPath></defs></svg>